<?xml version="1.0" encoding="utf-8"?>
<!-- Generator: Adobe Illustrator 16.0.4, SVG Export Plug-In . SVG Version: 6.00 Build 0)  -->
<!DOCTYPE svg PUBLIC "-//W3C//DTD SVG 1.1//EN" "http://www.w3.org/Graphics/SVG/1.1/DTD/svg11.dtd">
<svg version="1.1" id="Layer_1" xmlns="http://www.w3.org/2000/svg" xmlns:xlink="http://www.w3.org/1999/xlink" x="0px" y="0px"
	 width="80px" height="67.459px" viewBox="0 0 80 67.459" enable-background="new 0 0 80 67.459" xml:space="preserve">
<path fill="#ddd" d="M66,0v37.8c0,8.85-3.596,14.084-10.061,15.596c-0.006,0,0.092,0.002,0.086,0.004
	c0.021-0.049-0.606-0.088-0.602-0.1C57.529,48.953,58,43.606,58,37.226V0H43v37.8c0,3.942,0.082,7.164-1.324,9.665
	c0.721,2.63,4.43,6.185,9.846,6.408c-4.619-0.002-8.34-1.508-10.83-4.438C38.338,46.661,37,42.618,37,37.321V0H22v37.703
	c0,6.166,1.465,11.386,3.495,15.646c0.003,0.004,0.198,0.01,0.2,0.014c-0.002-0.004-0.805-0.01-0.808-0.014
	C18.527,51.735,14,46.328,14,37.321V0H0v37.703c0,19.71,11.533,29.756,29.52,29.756c2.771,0,5.649-0.237,8.089-0.712
	c-3.982-1.693-7.175-5.412-9.165-8.989c3.048,3.95,7.293,6.702,12.431,8.241c3.241,0.97,6.329,1.46,10.29,1.46
	C69.148,67.459,80,57.507,80,37.226V0H66z"/>
</svg>
